<svg width="1000" height="208" viewBox="0 0 1000 208" fill="none" xmlns="http://www.w3.org/2000/svg">
    <path fill-rule="evenodd" clip-rule="evenodd"
          d="M342.059 39.965L358.46 142.471H342.205L339.423 123.873H319.654L316.871 142.471H302.081L318.482 39.965H342.059V39.965ZM329.465 58.1232L321.704 109.962H337.226L329.465 58.1232V58.1232ZM361.242 54.6087V39.965H411.03V54.6087H394.19V142.471H378.082V54.6087H361.242ZM413.373 54.6087V39.965H463.162V54.6087H446.322V142.471H430.214V54.6087H413.373V54.6087ZM520.272 142.471H503.871C502.993 139.835 502.407 138.224 502.407 129.877V113.769C502.407 104.251 499.185 100.736 491.864 100.736H486.299V142.471H470.191V39.965H494.5C511.193 39.965 518.369 47.7262 518.369 63.5414V71.5954C518.369 82.1389 515.001 89.0214 507.825 92.3895C515.879 95.7575 518.515 103.519 518.515 114.209V130.024C518.515 135.003 518.662 138.664 520.272 142.471V142.471ZM494.06 54.6087H486.299V86.0927H492.596C498.6 86.0927 502.261 83.4568 502.261 75.2563V65.1522C502.261 57.8303 499.771 54.6087 494.06 54.6087ZM564.789 39.965L581.19 142.471H564.936L562.153 123.873H542.384L539.602 142.471H524.812L541.213 39.965H564.789V39.965ZM552.196 58.1232L544.435 109.962H559.957L552.196 58.1232V58.1232ZM620.142 104.251H635.372V117.87C635.372 134.27 627.171 143.642 611.356 143.642C595.541 143.642 587.341 134.27 587.341 117.87V64.5664C587.341 48.1655 595.541 38.7935 611.356 38.7935C627.171 38.7935 635.372 48.1655 635.372 64.5664V74.5241H620.142V63.5414C620.142 56.2195 616.921 53.4372 611.796 53.4372C606.67 53.4372 603.449 56.2195 603.449 63.5414V118.895C603.449 126.216 606.67 128.852 611.796 128.852C616.921 128.852 620.142 126.216 620.142 118.895V104.251V104.251ZM640.497 54.6087V39.965H690.286V54.6087H673.446V142.471H657.337V54.6087H640.497V54.6087ZM744.175 100.004V85.3605H766.726V117.87C766.726 134.27 758.525 143.642 742.71 143.642C726.895 143.642 718.695 134.27 718.695 117.87V64.5664C718.695 48.1655 726.895 38.7935 742.71 38.7935C758.525 38.7935 766.726 48.1655 766.726 64.5664V74.5241H751.496V63.5414C751.496 56.2195 748.275 53.4372 743.149 53.4372C738.024 53.4372 734.803 56.2195 734.803 63.5414V118.895C734.803 126.216 738.024 128.852 743.149 128.852C748.275 128.852 751.496 126.216 751.496 118.895V100.004H744.175ZM827.204 142.471H810.803C809.925 139.835 809.339 138.224 809.339 129.877V113.769C809.339 104.251 806.117 100.736 798.796 100.736H793.231V142.471H777.123V39.965H801.432C818.125 39.965 825.301 47.7262 825.301 63.5414V71.5954C825.301 82.1389 821.933 89.0214 814.757 92.3895C822.811 95.7575 825.447 103.519 825.447 114.209V130.024C825.447 135.003 825.594 138.664 827.204 142.471V142.471ZM800.992 54.6087H793.231V86.0927H799.528C805.532 86.0927 809.193 83.4568 809.193 75.2563V65.1522C809.193 57.8303 806.703 54.6087 800.992 54.6087V54.6087ZM850.781 63.5414V118.895C850.781 126.216 854.002 128.999 859.128 128.999C864.253 128.999 867.475 126.216 867.475 118.895V63.5414C867.475 56.2195 864.253 53.4372 859.128 53.4372C854.002 53.4372 850.781 56.2195 850.781 63.5414ZM834.673 117.87V64.5664C834.673 48.1655 843.312 38.7935 859.128 38.7935C874.943 38.7935 883.583 48.1655 883.583 64.5664V117.87C883.583 134.27 874.943 143.642 859.128 143.642C843.312 143.642 834.673 134.27 834.673 117.87ZM893.247 39.965H909.356V119.041C909.356 126.363 912.577 128.999 917.703 128.999C922.828 128.999 926.049 126.363 926.049 119.041V39.965H941.279V118.016C941.279 134.417 933.078 143.789 917.263 143.789C901.448 143.789 893.247 134.417 893.247 118.016V39.965V39.965ZM975.984 39.965C992.092 39.965 1000 48.8977 1000 65.2986V78.6244C1000 95.0253 992.092 103.958 975.984 103.958H968.37V142.471H952.262V39.965H975.984V39.965ZM975.984 54.6087H968.37V89.3143H975.984C981.11 89.3143 983.892 86.9713 983.892 79.6494V64.2736C983.892 56.9517 981.11 54.6087 975.984 54.6087V54.6087Z"
          fill="#071d24"/>
    <path d="M43.6138 51.5947L168.891 77.7093L121.714 207.88L43.6138 51.5947Z" fill="#63c6e6"/>
    <path d="M0 34.193L273.264 0L145.79 161.752L179.355 71.5223L0 34.193Z" fill="#071d24"/>
</svg>
